# 3ds Max Wavefront OBJ Exporter v0.97b - (c)2007 guruware
# ì¬‚µ‚½ƒtƒ@ƒCƒ‹ : 30.09.2019 16:09:18

mtllib room.mtl

#
# object Box001
#

v  -78.7402 0.0000 78.7402
v  -78.7402 0.0000 -78.7402
v  78.7402 0.0000 -78.7402
v  78.7402 0.0000 78.7402
v  -78.7402 1.9685 78.7402
v  78.7402 1.9685 78.7402
v  78.7402 1.9685 -78.7402
v  -78.7402 1.9685 -78.7402
v  80.7087 0.0000 78.7402
v  80.5681 0.0000 -78.7402
v  80.5681 1.9685 -78.7402
v  80.7087 1.9685 78.7402
v  78.7402 0.0000 -80.7087
v  -78.7402 0.0000 -80.7087
v  -78.7402 1.9685 -80.7087
v  78.7402 1.9685 -80.7087
v  -80.7087 0.0000 -78.7402
v  -80.7087 0.0000 78.7402
v  -80.7087 1.9685 78.7402
v  -80.7087 1.9685 -78.7402
v  78.5996 120.0787 -78.7402
v  78.7402 120.0787 78.7402
v  80.7087 120.0787 78.7402
v  80.5681 120.0787 -78.7402
v  -78.7402 120.0787 -78.7402
v  78.7402 120.0787 -78.7402
v  78.7402 120.0787 -80.7087
v  -78.7402 120.0787 -80.7087
v  -78.7402 120.0787 78.7402
v  -80.7087 120.0787 -78.7402
v  -80.7087 120.0787 78.7402
v  78.5996 1.9685 -80.7087
v  78.5996 0.0000 -80.7087
v  78.5996 120.0787 -80.7087
v  -51.9405 1.9685 -3.9194
v  -51.9405 2.0105 -9.2677
v  -24.3814 1.9685 -9.2677
v  -24.3814 1.9685 -3.9194
v  -51.2213 9.3260 -9.9758
v  -51.2213 9.3260 -47.0756
v  -25.0783 9.2862 -47.0756
v  -25.0783 9.2862 -9.9758
v  -51.9405 2.0105 -47.7837
v  -51.9405 1.9685 -53.1320
v  -24.3814 1.9685 -53.1320
v  -24.3814 1.9685 -47.7837
v  -51.9405 19.6850 -3.9194
v  -24.3814 19.6850 -3.9194
v  -24.3814 19.7270 -9.2677
v  -51.9405 19.7270 -9.2677
v  -51.2324 12.4104 -9.9758
v  -25.0895 12.4104 -9.9758
v  -25.0895 12.4104 -47.0756
v  -51.2324 12.4104 -47.0756
v  -51.9405 19.7270 -47.7837
v  -24.3814 19.7270 -47.7837
v  -24.3814 19.6850 -53.1320
v  -51.9405 19.6850 -53.1320
v  -24.3814 10.8268 -3.9194
v  -51.9405 10.8268 -3.9194
v  -24.3814 10.8268 -9.2677
v  -24.3814 10.8268 -53.1320
v  -24.3814 10.8268 -47.7837
v  -51.9405 10.8268 -53.1320
v  -51.9405 10.8687 -47.7837
v  -51.9405 10.8687 -9.2677
v  -25.0895 19.7270 -9.9758
v  -51.2324 19.7270 -9.9758
v  -51.2324 19.7270 -47.0756
v  -25.0895 19.7270 -47.0756
v  -51.2324 2.0094 -9.9758
v  -25.0895 1.9696 -9.9758
v  -25.0895 1.9696 -47.0756
v  -51.2324 2.0094 -47.0756
v  -6.6986 1.9685 19.1613
v  -6.6986 1.9685 13.8819
v  -2.2209 1.9685 13.8819
v  -2.2209 1.9685 19.1613
v  10.0835 1.9685 19.1613
v  10.0835 1.9685 13.8819
v  14.5612 1.9685 13.8819
v  14.5612 1.9685 19.1613
v  -6.6986 1.9685 -8.6302
v  -6.6986 1.9685 -13.9096
v  -2.2209 1.9685 -13.9096
v  -2.2209 1.9685 -8.6302
v  10.0835 1.9685 -8.6302
v  10.0835 1.9685 -13.9096
v  14.5612 1.9685 -13.9096
v  14.5612 1.9685 -8.6302
v  -6.6986 20.4724 19.1613
v  0.3880 20.4724 19.1613
v  0.3880 20.4724 8.1377
v  -6.6986 20.4724 8.1377
v  7.4746 20.4724 19.1613
v  7.4746 20.4724 8.1377
v  14.5612 20.4724 19.1613
v  14.5612 20.4724 8.1377
v  0.3880 20.4724 -2.8859
v  -6.6986 20.4724 -2.8859
v  7.4746 20.4724 -2.8859
v  14.5612 20.4724 -2.8859
v  0.3880 20.4724 -13.9096
v  -6.6986 20.4724 -13.9096
v  7.4746 20.4724 -13.9096
v  14.5612 20.4724 -13.9096
v  -2.2209 15.7560 19.1613
v  -6.6986 15.7560 19.1613
v  14.5612 15.7560 19.1613
v  10.0835 15.7560 19.1613
v  14.5612 15.7560 13.8819
v  14.5612 15.7560 -13.9096
v  14.5612 15.7560 -8.6302
v  10.0835 15.7560 -13.9096
v  -6.6986 15.7560 -13.9096
v  -2.2209 15.7560 -13.9096
v  -6.6986 15.7560 -8.6302
v  -6.6986 15.7560 13.8819
v  -2.2209 15.7560 13.9456
v  -2.2209 15.7560 -8.6939
v  10.0835 15.7560 -8.6939
v  10.0835 15.7560 13.9456
v  -11.3266 1.9685 30.2940
v  -13.9512 1.9685 30.2940
v  -13.9512 1.9685 28.1942
v  -11.3266 1.9685 28.1942
v  -13.9512 1.9685 26.0945
v  -11.3266 1.9685 26.0945
v  -13.9512 1.9685 23.9948
v  -11.3266 1.9685 23.9948
v  -16.5759 1.9685 30.2940
v  -16.5759 1.9685 28.1942
v  -16.5759 1.9685 26.0945
v  -16.5759 1.9685 23.9948
v  -19.2006 1.9685 30.2940
v  -19.2006 1.9685 28.1942
v  -19.2006 1.9685 26.0945
v  -19.2006 1.9685 23.9948
v  -11.3266 9.8425 30.2940
v  -11.3266 9.8425 28.1942
v  -13.9512 9.8425 28.1942
v  -13.9512 9.8425 30.2940
v  -11.3266 9.8425 26.0945
v  -13.9512 9.8425 26.0945
v  -11.3266 9.8425 23.9948
v  -13.9512 9.8425 23.9948
v  -16.5759 9.8425 28.1942
v  -16.5759 9.8425 30.2940
v  -16.5759 9.8425 26.0945
v  -16.5759 9.8425 23.9948
v  -19.2006 9.8425 28.1942
v  -19.2006 9.8425 30.2940
v  -19.2006 9.8425 26.0945
v  -19.2006 9.8425 23.9948
v  -11.3266 5.9055 28.1942
v  -11.3266 5.9055 30.2940
v  -11.3266 5.9055 26.0945
v  -11.3266 5.9055 23.9948
v  -13.9512 5.9055 23.9948
v  -16.5759 5.9055 23.9948
v  -19.2006 5.9055 23.9948
v  -19.2006 5.9055 26.0945
v  -19.2006 5.9055 28.1942
v  -19.2006 5.9055 30.2940
v  -16.5759 5.9055 30.2940
v  -13.9512 5.9055 30.2940
v  1.3665 1.9685 30.2940
v  -0.6451 1.9685 30.2940
v  -0.6451 1.9685 28.1942
v  1.3665 1.9685 28.1942
v  -0.6451 1.9685 26.0945
v  1.3665 1.9685 26.0945
v  -0.6451 1.9685 23.9948
v  1.3665 1.9685 23.9948
v  -2.6567 1.9685 30.2940
v  -2.6567 1.9685 28.1942
v  -2.6567 1.9685 26.0945
v  -2.6567 1.9685 23.9948
v  -4.6683 1.9685 30.2940
v  -4.6683 1.9685 28.1942
v  -4.6683 1.9685 26.0945
v  -4.6683 1.9685 23.9948
v  1.3665 5.5738 30.2940
v  1.3665 5.5738 28.1942
v  -0.6451 5.5738 28.1942
v  -0.6451 5.5738 30.2940
v  1.3665 5.5738 26.0945
v  -0.6451 5.5738 26.0945
v  1.3665 5.5738 23.9948
v  -0.6451 5.5738 23.9948
v  -2.6567 5.5738 28.1942
v  -2.6567 5.5738 30.2940
v  -2.6567 5.5738 26.0945
v  -2.6567 5.5738 23.9948
v  -4.6683 5.5738 28.1942
v  -4.6683 5.5738 30.2940
v  -4.6683 5.5738 26.0945
v  -4.6683 5.5738 23.9948
v  1.3665 3.7712 28.1942
v  1.3665 3.7712 30.2940
v  1.3665 3.7712 26.0945
v  1.3665 3.7712 23.9948
v  -0.6451 3.7712 23.9948
v  -2.6567 3.7712 23.9948
v  -4.6683 3.7712 23.9948
v  -4.6683 3.7712 26.0945
v  -4.6683 3.7712 28.1942
v  -4.6683 3.7712 30.2940
v  -2.6567 3.7712 30.2940
v  -0.6451 3.7712 30.2940
v  23.2890 1.9685 -10.4444
v  23.2890 1.9685 -14.9063
v  27.7509 1.9685 -14.9063
v  27.7509 1.9685 -10.4444
v  32.2129 1.9685 -14.9063
v  32.2129 1.9685 -10.4444
v  36.6748 1.9685 -14.9063
v  36.6748 1.9685 -10.4444
v  23.2890 1.9685 -19.3683
v  27.7509 1.9685 -19.3683
v  32.2129 1.9685 -19.3683
v  36.6748 1.9685 -19.3683
v  23.2890 1.9685 -23.8302
v  27.7509 1.9685 -23.8302
v  32.2129 1.9685 -23.8302
v  36.6748 1.9685 -23.8302
v  23.2890 5.5906 -10.4444
v  27.7509 5.5906 -10.4444
v  27.7509 5.5906 -14.9063
v  23.2890 5.5906 -14.9063
v  32.2129 5.5906 -10.4444
v  32.2129 5.5906 -14.9063
v  36.6748 5.5906 -10.4444
v  36.6748 5.5906 -14.9063
v  27.7509 5.5906 -19.3683
v  23.2890 5.5906 -19.3683
v  32.2129 5.5906 -19.3683
v  36.6748 5.5906 -19.3683
v  27.7509 5.5906 -23.8302
v  23.2890 5.5906 -23.8302
v  32.2129 5.5906 -23.8302
v  36.6748 5.5906 -23.8302
v  27.7509 3.7795 -10.4444
v  23.2890 3.7795 -10.4444
v  32.2129 3.7795 -10.4444
v  36.6748 3.7795 -10.4444
v  36.6748 3.7795 -14.9063
v  36.6748 3.7795 -19.3683
v  36.6748 3.7795 -23.8302
v  32.2129 3.7795 -23.8302
v  27.7509 3.7795 -23.8302
v  23.2890 3.7795 -23.8302
v  23.2890 3.7795 -19.3683
v  23.2890 3.7795 -14.9063
v  12.6278 1.9685 -40.8969
v  6.3286 1.9685 -40.8968
v  6.3286 1.9685 -44.9651
v  12.6278 1.9685 -44.9651
v  6.3286 1.9685 -49.0333
v  12.6278 1.9685 -49.0333
v  6.3286 1.9685 -53.1016
v  12.6278 1.9685 -53.1016
v  0.0294 1.9685 -40.8968
v  0.0294 1.9685 -44.9651
v  0.0294 1.9685 -49.0333
v  0.0294 1.9685 -53.1016
v  -6.2698 1.9685 -40.8968
v  -6.2698 1.9685 -44.9651
v  -6.2698 1.9685 -49.0333
v  -6.2698 1.9685 -53.1016
v  12.6278 14.1732 -40.8969
v  12.6278 14.1732 -44.9651
v  6.3286 14.1732 -44.9651
v  6.3286 14.1732 -40.8968
v  12.6278 14.1732 -49.0333
v  6.3286 14.1732 -49.0333
v  12.6278 14.1732 -53.1016
v  6.3286 14.1732 -53.1016
v  0.0294 14.1732 -44.9651
v  0.0294 14.1732 -40.8968
v  0.0294 14.1732 -49.0333
v  0.0294 14.1732 -53.1016
v  -6.2698 14.1732 -44.9651
v  -6.2698 14.1732 -40.8968
v  -6.2698 14.1732 -49.0333
v  -6.2698 14.1732 -53.1016
v  12.6278 8.0709 -44.9651
v  12.6278 8.0709 -40.8969
v  12.6278 8.0709 -49.0333
v  12.6278 8.0709 -53.1016
v  6.3286 8.0709 -53.1016
v  0.0294 8.0709 -53.1016
v  -6.2698 8.0709 -53.1016
v  -6.2698 8.0709 -49.0333
v  -6.2698 8.0709 -44.9651
v  -6.2698 8.0709 -40.8968
v  0.0294 8.0709 -40.8968
v  6.3286 8.0709 -40.8968
# 298 vertices

vn 0.0000 -0.7071 0.7071
vn 0.7071 -0.7071 -0.0000
vn -0.1956 -0.9806 0.0140
vn 0.3015 0.3015 0.9045
vn -0.3015 0.3015 0.9045
vn -0.8921 0.2975 0.3401
vn 0.9045 0.3015 0.3015
vn 0.5775 -0.5773 0.5772
vn 0.7201 -0.6335 -0.2832
vn 0.9306 0.0000 -0.3659
vn 0.7074 0.0000 0.7068
vn 0.3113 -0.6272 -0.7139
vn 0.0000 -0.7071 -0.7071
vn 0.0000 0.0000 -1.0000
vn 0.3997 0.0000 -0.9166
vn -0.7173 -0.6303 -0.2971
vn -0.5774 -0.5774 0.5774
vn -0.7071 0.0000 0.7071
vn -0.9239 0.0000 -0.3826
vn -0.8949 0.4462 0.0004
vn -0.5770 0.5774 0.5776
vn 0.5775 0.5773 0.5772
vn 0.7201 0.6335 -0.2832
vn 0.0000 0.7071 0.7071
vn 0.0000 0.0000 1.0000
vn 0.3113 0.6272 -0.7139
vn 0.0000 0.7071 -0.7071
vn 0.5774 0.5774 0.5774
vn 0.8944 -0.4472 -0.0000
vn -0.7173 0.6303 -0.2971
vn -0.5774 0.5774 0.5774
vn -0.9975 0.0000 0.0712
vn -1.0000 -0.0012 0.0008
vn 0.3206 -0.5470 -0.7733
vn 0.3829 0.0000 -0.9238
vn 0.3206 0.5470 -0.7733
vn -0.5769 -0.5798 0.5753
vn -0.7181 -0.6281 -0.2996
vn 0.7168 -0.6308 -0.2972
vn 0.5774 -0.5774 0.5774
vn -0.6685 -0.3125 -0.6748
vn -0.6685 -0.3125 0.6748
vn 0.6752 -0.3111 0.6688
vn 0.6752 -0.3111 -0.6688
vn -0.7181 -0.6281 0.2996
vn -0.5769 -0.5798 -0.5753
vn 0.5774 -0.5774 -0.5774
vn 0.7168 -0.6308 0.2972
vn -0.5778 0.5749 0.5794
vn 0.5778 0.5749 0.5794
vn 0.7170 0.6319 -0.2945
vn -0.7170 0.6318 -0.2946
vn -0.6721 0.3108 -0.6721
vn 0.6718 0.3121 -0.6718
vn 0.6718 0.3121 0.6718
vn -0.6721 0.3108 0.6721
vn -0.7170 0.6319 0.2945
vn 0.7170 0.6319 0.2945
vn 0.5778 0.5749 -0.5794
vn -0.5778 0.5749 -0.5794
vn 0.7071 0.0000 0.7071
vn 0.9801 0.0000 -0.1987
vn 0.7071 0.0000 -0.7071
vn 0.9801 0.0000 0.1987
vn -0.7071 0.0000 -0.7071
vn -0.9792 -0.0000 0.2030
vn -0.9792 0.0000 -0.2030
vn 0.2971 0.6303 -0.7173
vn -0.2971 0.6303 -0.7173
vn -0.2971 0.6303 0.7173
vn 0.2971 0.6303 0.7173
vn -0.2981 -0.6298 -0.7173
vn 0.2961 -0.6307 -0.7173
vn 0.2961 -0.6307 0.7173
vn -0.2981 -0.6298 0.7173
vn -0.5774 -0.5774 -0.5774
vn 0.5771 -0.5761 -0.5788
vn -0.5771 -0.5761 -0.5788
vn 0.5771 -0.5761 0.5788
vn -0.5771 -0.5761 0.5788
vn 0.0000 1.0000 -0.0000
vn -0.7071 0.7071 -0.0000
vn 0.7071 0.7071 -0.0000
vn -0.5774 0.5774 -0.5774
vn 0.5774 0.5774 -0.5774
vn 0.3015 -0.3015 0.9045
vn -0.3015 -0.3015 0.9045
vn 0.9030 -0.3052 -0.3024
vn 0.9030 -0.3052 0.3024
vn -0.3015 -0.3015 -0.9045
vn 0.3015 -0.3015 -0.9045
vn -0.9030 -0.3052 0.3024
vn -0.9030 -0.3052 -0.3024
vn 0.3074 -0.9024 -0.3021
vn 0.3074 -0.9024 0.3021
vn -0.3074 -0.9024 0.3021
vn -0.3074 -0.9024 -0.3021
vn 0.0000 -1.0000 -0.0000
vn -0.0000 -0.7071 -0.7071
vn -0.7071 -0.7071 -0.0000
vn -0.0000 0.7071 -0.7071
vn 1.0000 0.0000 -0.0000
vn -1.0000 0.0000 -0.0000
vn -0.7071 -0.7071 0.0000
vn -0.5774 -0.5774 -0.5773
vn -0.7071 0.7071 0.0000
vn -0.5774 0.5774 -0.5773
vn -1.0000 0.0000 0.0000
vn -0.5774 -0.5773 -0.5774
vn -0.5774 0.5773 -0.5774
vn -0.0000 0.0000 -1.0000
# 111 vertex normals

vt 1.0000 0.0000 0.0000
vt 1.0000 1.0000 0.0000
vt 0.0000 1.0000 0.0000
vt 0.0000 0.0000 0.0000
vt 1.0000 0.3333 0.0000
vt 0.0000 0.3333 0.0000
vt 1.0000 0.6667 0.0000
vt 0.0000 0.6667 0.0000
vt 1.0000 0.5000 0.0000
vt 0.0000 0.5000 0.0000
vt 0.3333 0.0000 0.0000
vt 0.3333 0.5000 0.0000
vt 0.6667 0.0000 0.0000
vt 0.6667 0.5000 0.0000
vt 0.3333 1.0000 0.0000
vt 0.6667 1.0000 0.0000
vt 0.6667 0.3333 0.0000
vt 0.3333 0.3333 0.0000
vt -0.0000 0.3333 0.0000
vt -0.0000 0.0000 0.0000
vt 0.6667 0.6667 0.0000
vt 0.3333 0.6667 0.0000
vt -0.0000 1.0000 0.0000
vt -0.0000 0.6667 0.0000
vt 0.4444 0.5000 0.0000
vt 0.5556 0.5000 0.0000
# 26 texture coords

o Box001
g Box001
usemtl wire_135059008
s 2
f 1/1/1 2/2/2 3/3/3 4/4/1 
s 4
f 5/4/4 6/1/5 7/2/6 8/3/7 
s 8
f 1/4/1 4/1/1 6/2/5 5/3/4 
s 16
f 9/4/8 10/1/9 11/2/10 12/3/11 
s 32
f 13/4/12 14/1/13 15/2/14 16/3/15 
s 64
f 17/4/16 18/1/17 19/2/18 20/3/19 
s off
f 4/4/1 3/1/3 10/1/9 9/4/8 
f 21/2/20 22/3/21 23/3/22 24/2/23 
f 6/3/5 4/4/1 9/4/8 12/3/11 
f 3/4/3 2/1/2 14/1/13 13/4/12 
f 25/2/24 26/3/25 27/3/26 28/2/27 
f 2/4/2 1/1/1 18/1/17 17/4/16 
f 1/1/1 5/2/4 19/2/18 18/1/17 
f 29/2/28 25/3/29 30/3/30 31/2/31 
f 8/2/7 7/3/6 26/3/25 25/2/24 
f 16/3/15 15/2/14 28/2/27 27/3/26 
f 7/2/6 6/3/5 22/3/21 21/2/20 
f 6/3/5 12/3/11 23/3/22 22/3/21 
f 12/3/11 11/2/10 24/2/23 23/3/22 
f 5/2/4 8/3/7 25/3/29 29/2/28 
f 20/3/19 19/2/18 31/2/31 30/3/30 
f 19/2/18 5/2/4 29/2/28 31/2/31 
f 3/1/3 32/2/32 33/1/32 
f 7/2/6 34/2/33 32/2/32 
f 8/3/7 14/4/34 15/3/35 
f 25/3/29 15/3/35 28/3/36 
f 3/1/3 7/2/6 32/2/32 
f 7/2/6 21/2/20 34/2/33 
f 8/3/7 2/4/2 14/4/34 
f 25/3/29 8/3/7 15/3/35 
f 28/3/36 15/3/35 20/3/19 30/3/30 
f 25/3/29 28/3/36 30/3/30 25/3/29 
f 15/3/35 14/4/34 17/4/16 20/3/19 
f 14/4/34 2/2/2 2/2/2 17/4/16 
f 16/3/15 27/3/26 24/2/23 11/2/10 
f 27/3/26 26/3/25 21/2/20 24/2/23 
f 13/4/12 16/3/15 11/2/10 10/1/9 
f 3/3/3 13/4/12 10/1/9 3/3/3 
s 2
f 35/1/37 36/5/38 37/6/39 38/4/40 
f 39/5/41 40/7/42 41/8/43 42/6/44 
f 43/7/45 44/2/46 45/3/47 46/8/48 
s 4
f 47/4/49 48/1/50 49/5/51 50/6/52 
f 51/6/53 52/5/54 53/7/55 54/8/56 
f 55/8/57 56/7/58 57/2/59 58/3/60 
s 8
f 35/4/37 38/1/40 59/9/61 60/10/18 
f 60/10/18 59/9/61 48/2/50 47/3/49 
s 16
f 38/4/40 37/11/39 61/12/62 59/10/61 
f 46/13/48 45/1/47 62/9/63 63/14/64 
f 59/10/61 61/12/62 49/15/51 48/3/50 
f 63/14/64 62/9/63 57/2/59 56/16/58 
s 32
f 45/4/47 44/1/46 64/9/65 62/10/63 
f 62/10/63 64/9/65 58/2/60 57/3/59 
s 64
f 44/4/46 43/11/45 65/12/66 64/10/65 
f 36/13/38 35/1/37 60/9/18 66/14/67 
f 64/10/65 65/12/66 55/15/57 58/3/60 
f 66/14/67 60/9/18 47/2/49 50/16/52 
s off
f 50/6/52 49/5/51 67/5/68 68/6/69 
f 56/7/58 55/8/57 69/8/70 70/7/71 
f 37/6/39 36/5/38 71/5/72 72/6/73 
f 43/7/45 46/8/48 73/8/74 74/7/75 
f 68/6/69 67/5/68 52/5/54 51/6/53 
f 70/7/71 69/8/70 54/8/56 53/7/55 
f 72/6/73 71/5/72 39/5/41 42/6/44 
f 74/7/75 73/8/74 41/8/43 40/7/42 
f 42/6/44 41/8/43 53/7/55 52/5/54 
f 40/7/42 39/5/41 51/6/53 54/8/56 
f 52/5/54 67/5/68 49/5/51 61/12/62 
f 72/6/73 42/6/44 61/12/62 37/6/39 
f 63/14/64 56/7/58 70/7/71 53/7/55 
f 46/8/48 63/14/64 41/8/43 73/8/74 
f 66/14/67 50/6/52 68/6/69 51/6/53 
f 36/5/38 66/14/67 39/5/41 71/5/72 
f 54/8/56 69/8/70 55/8/57 65/12/66 
f 74/7/75 40/7/42 65/12/66 43/7/45 
s 2
f 75/1/17 76/5/76 77/17/77 78/13/40 
f 79/11/17 80/18/78 81/19/47 82/20/40 
f 83/7/17 84/2/76 85/16/47 86/21/79 
f 87/22/80 88/15/76 89/23/47 90/24/40 
s 4
f 91/4/31 92/11/24 93/18/81 94/6/82 
f 92/11/24 95/13/24 96/17/81 93/18/81 
f 95/13/24 97/1/28 98/5/83 96/17/81 
f 94/6/82 93/18/81 99/22/81 100/8/82 
f 93/18/81 96/17/81 101/21/81 99/22/81 
f 96/17/81 98/5/83 102/7/83 101/21/81 
f 100/8/82 99/22/81 103/15/27 104/3/84 
f 99/22/81 101/21/81 105/16/27 103/15/27 
f 101/21/81 102/7/83 106/2/85 105/16/27 
s 8
f 75/4/17 78/11/40 107/12/86 108/10/18 
f 79/13/17 82/1/40 109/9/61 110/14/87 
f 108/10/18 107/12/86 92/15/24 91/3/31 
f 107/12/86 110/14/87 95/16/24 92/15/24 
f 110/14/87 109/9/61 97/2/28 95/16/24 
s 16
f 82/4/40 81/11/47 111/12/88 109/10/61 
f 90/13/40 89/1/47 112/9/63 113/14/89 
f 109/10/61 111/12/88 98/15/83 97/3/28 
f 111/12/88 113/14/89 102/16/83 98/15/83 
f 113/14/89 112/9/63 106/2/85 102/16/83 
s 32
f 89/4/47 88/11/76 114/12/90 112/10/63 
f 85/13/47 84/1/76 115/9/65 116/14/91 
f 112/10/63 114/12/90 105/15/27 106/3/85 
f 114/12/90 116/14/91 103/16/27 105/15/27 
f 116/14/91 115/9/65 104/2/84 103/16/27 
s 64
f 84/4/76 83/11/17 117/12/92 115/10/65 
f 76/13/76 75/1/17 108/9/18 118/14/93 
f 115/10/65 117/12/92 100/15/82 104/3/84 
f 117/12/92 118/14/93 94/16/82 100/15/82 
f 118/14/93 108/9/18 91/2/31 94/16/82 
s off
f 119/25/94 120/26/95 121/25/96 122/26/97 
f 120/26/95 116/14/91 114/12/90 121/25/96 
f 122/26/97 110/14/87 107/12/86 119/25/94 
f 77/17/77 119/25/94 107/12/86 78/11/40 
f 79/11/17 110/14/87 122/26/97 80/18/78 
f 116/14/91 120/26/95 86/21/79 85/16/47 
f 87/22/80 121/25/96 114/12/90 88/11/76 
f 113/14/89 121/25/96 87/22/80 90/24/40 
f 122/26/97 111/12/88 81/11/47 80/18/78 
f 118/14/93 119/25/94 77/17/77 76/5/76 
f 86/21/79 120/26/95 117/12/92 83/11/17 
f 118/14/93 117/12/92 120/26/95 119/25/94 
f 122/26/97 121/25/96 113/14/89 111/12/88 
s 2
f 123/1/40 124/5/1 125/17/98 126/13/2 
f 126/13/2 125/17/98 127/18/98 128/11/2 
f 128/11/2 127/18/98 129/19/13 130/20/47 
f 124/5/1 131/7/1 132/21/98 125/17/98 
f 125/17/98 132/21/98 133/22/98 127/18/98 
f 127/18/98 133/22/98 134/24/99 129/19/13 
f 131/7/1 135/2/17 136/16/100 132/21/98 
f 132/21/98 136/16/100 137/15/100 133/22/98 
f 133/22/98 137/15/100 138/23/76 134/24/99 
s 4
f 139/4/28 140/11/83 141/18/81 142/6/24 
f 140/11/83 143/13/83 144/17/81 141/18/81 
f 143/13/83 145/1/85 146/5/27 144/17/81 
f 142/6/24 141/18/81 147/22/81 148/8/24 
f 141/18/81 144/17/81 149/21/81 147/22/81 
f 144/17/81 146/5/27 150/7/101 149/21/81 
f 148/8/24 147/22/81 151/15/82 152/3/31 
f 147/22/81 149/21/81 153/16/82 151/15/82 
f 149/21/81 150/7/101 154/2/84 153/16/82 
s 8
f 123/4/40 126/11/2 155/12/102 156/10/61 
f 126/11/2 128/13/2 157/14/102 155/12/102 
f 128/13/2 130/1/47 158/9/63 157/14/102 
f 156/10/61 155/12/102 140/15/83 139/3/28 
f 155/12/102 157/14/102 143/16/83 140/15/83 
f 157/14/102 158/9/63 145/2/85 143/16/83 
s 16
f 130/4/47 129/11/13 159/12/14 158/10/63 
f 129/11/13 134/13/99 160/14/14 159/12/14 
f 134/13/99 138/1/76 161/9/65 160/14/14 
f 158/10/63 159/12/14 146/15/27 145/3/85 
f 159/12/14 160/14/14 150/16/101 146/15/27 
f 160/14/14 161/9/65 154/2/84 150/16/101 
s 32
f 138/4/76 137/11/100 162/12/103 161/10/65 
f 137/11/100 136/13/100 163/14/103 162/12/103 
f 136/13/100 135/1/17 164/9/18 163/14/103 
f 161/10/65 162/12/103 153/15/82 154/3/84 
f 162/12/103 163/14/103 151/16/82 153/15/82 
f 163/14/103 164/9/18 152/2/31 151/16/82 
s 64
f 135/4/17 131/11/1 165/12/25 164/10/18 
f 131/11/1 124/13/1 166/14/25 165/12/25 
f 124/13/1 123/1/40 156/9/61 166/14/25 
f 164/10/18 165/12/25 148/15/24 152/3/31 
f 165/12/25 166/14/25 142/16/24 148/15/24 
f 166/14/25 156/9/61 139/2/28 142/16/24 
s 2
f 167/1/40 168/5/1 169/17/98 170/13/2 
f 170/13/2 169/17/98 171/18/98 172/11/2 
f 172/11/2 171/18/98 173/19/13 174/20/47 
f 168/5/1 175/7/1 176/21/98 169/17/98 
f 169/17/98 176/21/98 177/22/98 171/18/98 
f 171/18/98 177/22/98 178/24/99 173/19/13 
f 175/7/1 179/2/17 180/16/104 176/21/98 
f 176/21/98 180/16/104 181/15/104 177/22/98 
f 177/22/98 181/15/104 182/23/105 178/24/99 
s 4
f 183/4/28 184/11/83 185/18/81 186/6/24 
f 184/11/83 187/13/83 188/17/81 185/18/81 
f 187/13/83 189/1/85 190/5/27 188/17/81 
f 186/6/24 185/18/81 191/22/81 192/8/24 
f 185/18/81 188/17/81 193/21/81 191/22/81 
f 188/17/81 190/5/27 194/7/101 193/21/81 
f 192/8/24 191/22/81 195/15/106 196/3/31 
f 191/22/81 193/21/81 197/16/106 195/15/106 
f 193/21/81 194/7/101 198/2/107 197/16/106 
s 8
f 167/4/40 170/11/2 199/12/102 200/10/61 
f 170/11/2 172/13/2 201/14/102 199/12/102 
f 172/13/2 174/1/47 202/9/63 201/14/102 
f 200/10/61 199/12/102 184/15/83 183/3/28 
f 199/12/102 201/14/102 187/16/83 184/15/83 
f 201/14/102 202/9/63 189/2/85 187/16/83 
s 16
f 174/4/47 173/11/13 203/12/14 202/10/63 
f 173/11/13 178/13/99 204/14/14 203/12/14 
f 178/13/99 182/1/105 205/9/65 204/14/14 
f 202/10/63 203/12/14 190/15/27 189/3/85 
f 203/12/14 204/14/14 194/16/101 190/15/27 
f 204/14/14 205/9/65 198/2/107 194/16/101 
s 32
f 182/4/105 181/11/104 206/12/108 205/10/65 
f 181/11/104 180/13/104 207/14/108 206/12/108 
f 180/13/104 179/1/17 208/9/18 207/14/108 
f 205/10/65 206/12/108 197/15/106 198/3/107 
f 206/12/108 207/14/108 195/16/106 197/15/106 
f 207/14/108 208/9/18 196/2/31 195/16/106 
s 64
f 179/4/17 175/11/1 209/12/25 208/10/18 
f 175/11/1 168/13/1 210/14/25 209/12/25 
f 168/13/1 167/1/40 200/9/61 210/14/25 
f 208/10/18 209/12/25 192/15/24 196/3/31 
f 209/12/25 210/14/25 186/16/24 192/15/24 
f 210/14/25 200/9/61 183/2/28 186/16/24 
s 2
f 211/1/17 212/5/100 213/17/98 214/13/1 
f 214/13/1 213/17/98 215/18/98 216/11/1 
f 216/11/1 215/18/98 217/19/2 218/20/40 
f 212/5/100 219/7/100 220/21/98 213/17/98 
f 213/17/98 220/21/98 221/22/98 215/18/98 
f 215/18/98 221/22/98 222/24/2 217/19/2 
f 219/7/100 223/2/76 224/16/13 220/21/98 
f 220/21/98 224/16/13 225/15/13 221/22/98 
f 221/22/98 225/15/13 226/23/47 222/24/2 
s 4
f 227/4/31 228/11/24 229/18/81 230/6/82 
f 228/11/24 231/13/24 232/17/81 229/18/81 
f 231/13/24 233/1/28 234/5/83 232/17/81 
f 230/6/82 229/18/81 235/22/81 236/8/82 
f 229/18/81 232/17/81 237/21/81 235/22/81 
f 232/17/81 234/5/83 238/7/83 237/21/81 
f 236/8/82 235/22/81 239/15/27 240/3/84 
f 235/22/81 237/21/81 241/16/27 239/15/27 
f 237/21/81 238/7/83 242/2/85 241/16/27 
s 8
f 211/4/17 214/11/1 243/12/25 244/10/18 
f 214/11/1 216/13/1 245/14/25 243/12/25 
f 216/13/1 218/1/40 246/9/61 245/14/25 
f 244/10/18 243/12/25 228/15/24 227/3/31 
f 243/12/25 245/14/25 231/16/24 228/15/24 
f 245/14/25 246/9/61 233/2/28 231/16/24 
s 16
f 218/4/40 217/11/2 247/12/102 246/10/61 
f 217/11/2 222/13/2 248/14/102 247/12/102 
f 222/13/2 226/1/47 249/9/63 248/14/102 
f 246/10/61 247/12/102 234/15/83 233/3/28 
f 247/12/102 248/14/102 238/16/83 234/15/83 
f 248/14/102 249/9/63 242/2/85 238/16/83 
s 32
f 226/4/47 225/11/13 250/12/14 249/10/63 
f 225/11/13 224/13/13 251/14/14 250/12/14 
f 224/13/13 223/1/76 252/9/65 251/14/14 
f 249/10/63 250/12/14 241/15/27 242/3/85 
f 250/12/14 251/14/14 239/16/27 241/15/27 
f 251/14/14 252/9/65 240/2/84 239/16/27 
s 64
f 223/4/76 219/11/100 253/12/103 252/10/65 
f 219/11/100 212/13/100 254/14/103 253/12/103 
f 212/13/100 211/1/17 244/9/18 254/14/103 
f 252/10/65 253/12/103 236/15/82 240/3/84 
f 253/12/103 254/14/103 230/16/82 236/15/82 
f 254/14/103 244/9/18 227/2/31 230/16/82 
s 2
f 255/1/40 256/5/1 257/17/98 258/13/2 
f 258/13/2 257/17/98 259/18/98 260/11/2 
f 260/11/2 259/18/98 261/19/13 262/20/47 
f 256/5/1 263/7/1 264/21/98 257/17/98 
f 257/17/98 264/21/98 265/22/98 259/18/98 
f 259/18/98 265/22/98 266/24/13 261/19/13 
f 263/7/1 267/2/17 268/16/100 264/21/98 
f 264/21/98 268/16/100 269/15/100 265/22/98 
f 265/22/98 269/15/100 270/23/109 266/24/13 
s 4
f 271/4/28 272/11/83 273/18/81 274/6/24 
f 272/11/83 275/13/83 276/17/81 273/18/81 
f 275/13/83 277/1/85 278/5/27 276/17/81 
f 274/6/24 273/18/81 279/22/81 280/8/24 
f 273/18/81 276/17/81 281/21/81 279/22/81 
f 276/17/81 278/5/27 282/7/27 281/21/81 
f 280/8/24 279/22/81 283/15/82 284/3/31 
f 279/22/81 281/21/81 285/16/82 283/15/82 
f 281/21/81 282/7/27 286/2/110 285/16/82 
s 8
f 255/4/40 258/11/2 287/12/102 288/10/61 
f 258/11/2 260/13/2 289/14/102 287/12/102 
f 260/13/2 262/1/47 290/9/63 289/14/102 
f 288/10/61 287/12/102 272/15/83 271/3/28 
f 287/12/102 289/14/102 275/16/83 272/15/83 
f 289/14/102 290/9/63 277/2/85 275/16/83 
s 16
f 262/4/47 261/11/13 291/12/14 290/10/63 
f 261/11/13 266/13/13 292/14/111 291/12/14 
f 266/13/13 270/1/109 293/9/65 292/14/111 
f 290/10/63 291/12/14 278/15/27 277/3/85 
f 291/12/14 292/14/111 282/16/27 278/15/27 
f 292/14/111 293/9/65 286/2/110 282/16/27 
s 32
f 270/4/109 269/11/100 294/12/103 293/10/65 
f 269/11/100 268/13/100 295/14/103 294/12/103 
f 268/13/100 267/1/17 296/9/18 295/14/103 
f 293/10/65 294/12/103 285/15/82 286/3/110 
f 294/12/103 295/14/103 283/16/82 285/15/82 
f 295/14/103 296/9/18 284/2/31 283/16/82 
s 64
f 267/4/17 263/11/1 297/12/25 296/10/18 
f 263/11/1 256/13/1 298/14/25 297/12/25 
f 256/13/1 255/1/40 288/9/61 298/14/25 
f 296/10/18 297/12/25 280/15/24 284/3/31 
f 297/12/25 298/14/25 274/16/24 280/15/24 
f 298/14/25 288/9/61 271/2/28 274/16/24 
# 280 polygons - 8 triangles

